<?xml version="1.0" encoding="utf-8"?>
<!-- Generator: Adobe Illustrator 17.0.0, SVG Export Plug-In . SVG Version: 6.00 Build 0)  -->
<!DOCTYPE svg PUBLIC "-//W3C//DTD SVG 1.1//EN" "http://www.w3.org/Graphics/SVG/1.1/DTD/svg11.dtd">
<svg class="ng-tns-c0-0" data-name="Layer 1" height="67.500000pt" id="Layer_1" preserveAspectRatio="xMidYMid meet" version="1.0" viewBox="0 0 3800 230" width="962.000000pt" xmlns="http://www.w3.org/2000/svg"><defs class="ng-tns-c0-0"><style class="ng-tns-c0-0">.cls-1{fill: #fff;}</style></defs><title class="ng-tns-c0-0">Logo TC MOTOR.HYUNDAI-final</title><g class="ng-tns-c0-0" fill="#000000" stroke="none" transform="translate(0.000000,135.000000) scale(0.0250000,-0.0250000)">
     <defs>
        <style type="text/css">
            .cls-1 {
                fill: #fff;
            }
        </style>
  </defs>
    <path class="cls-1" d="M1137 1310 c-446 -32 -835 -188 -1009 -405 -65 -81 -91 -150 -91
               -245 0 -95 26 -164 91 -245 179 -222 562 -373 1030 -405 216 -14 500 9 687 56
               352 88 607 250 698 441 28 60 32 78 32 153 0 75 -4 93 -32 153 -97 205 -392
               380 -768 456 -190 38 -445 54 -638 41z m544 -130 c148 -24 274 -57 289 -75 27
               -33 -166 -153 -395 -246 -199 -80 -313 -112 -403 -113 -71 -1 -75 0 -103 32
               -36 40 -38 92 -10 175 46 134 96 205 166 239 36 17 55 18 186 13 80 -3 201
               -14 270 -25z m-791 -29 c0 -4 -21 -34 -46 -67 -118 -151 -235 -351 -344 -585
               -40 -85 -78 -160 -85 -168 -11 -12 -20 -10 -58 12 -65 39 -152 131 -184 195
               -39 79 -39 174 0 249 47 91 146 177 282 246 165 83 435 156 435 118z m1396
               -194 c69 -51 112 -97 151 -164 25 -43 28 -58 28 -133 0 -80 -2 -90 -35 -144
               -64 -106 -186 -197 -360 -269 -135 -55 -316 -102 -340 -87 -8 5 7 33 49 88
               105 137 188 277 308 520 63 127 121 232 128 232 7 0 39 -19 71 -43z m-733
               -417 c27 -30 29 -38 24 -90 -6 -67 -57 -196 -101 -253 -51 -66 -86 -82 -191
               -83 -217 -2 -587 57 -634 101 -19 18 -10 28 76 86 200 136 596 284 737 276 52
               -3 62 -7 89 -37z"></path><path class="cls-1" d="M3050 660 l0 -470 110 0 110 0 0 190 0 190 200 0 200 0 0 -190 0
               -190 115 0 115 0 0 470 0 470 -115 0 -115 0 0 -180 0 -180 -200 0 -200 0 0
               180 0 180 -110 0 -110 0 0 -470z"></path><path class="cls-1" d="M4175 820 l195 -310 0 -160 0 -160 110 0 110 0 0 161 0 161 190 304
               c105 167 190 306 190 309 0 3 -59 4 -132 3 l-131 -3 -111 -177 c-61 -98 -114
               -178 -117 -178 -4 0 -57 81 -119 180 l-112 180 -134 0 -133 0 194 -310z"></path><path class="cls-1" d="M5060 660 l0 -471 368 3 c410 3 402 2 452 76 l25 36 3 413 3 413
               -111 0 -110 0 0 -348 c0 -265 -3 -352 -13 -366 -11 -15 -33 -17 -197 -17
               l-185 0 -3 365 -2 366 -115 0 -115 0 0 -470z"></path><path class="cls-1" d="M6120 660 l0 -470 110 0 110 0 0 365 0 365 188 0 c133 0 192 -4 200
               -12 9 -9 12 -104 12 -365 l0 -353 115 0 115 0 0 393 c-1 411 -4 441 -47 489
               -10 11 -36 29 -58 39 -36 17 -72 19 -392 19 l-353 0 0 -470z"></path><path class="cls-1" d="M7170 660 l0 -471 368 3 c363 3 367 3 404 26 21 13 45 40 57 66 20
               40 21 59 21 376 0 317 -1 336 -21 376 -12 26 -36 53 -57 66 -37 23 -41 23
               -404 26 l-368 3 0 -471z m616 249 c21 -17 21 -481 0 -498 -9 -8 -76 -12 -200
               -14 l-186 -2 0 265 0 265 186 -2 c124 -2 191 -6 200 -14z"></path><path class="cls-1" d="M8336 1120 c-37 -12 -85 -56 -102 -97 -11 -26 -14 -115 -14 -433 l0
               -400 110 0 110 0 0 145 0 145 200 0 200 0 0 -145 0 -145 115 0 115 0 0 470 0
               470 -352 -1 c-194 0 -366 -5 -382 -9z m504 -315 l0 -120 -197 2 -198 2 -3 88
               c-3 104 2 131 28 141 10 4 98 7 194 7 l176 0 0 -120z"></path><path class="cls-1" d="M9280 660 l0 -470 115 0 115 0 0 470 0 470 -115 0 -115 0 0 -470z"></path><path class="cls-1" d="M10060 660 l0 -470 30 0 30 0 0 470 0 470 -30 0 -30 0 0 -470z"></path><path class="cls-1" d="M10560 985 l0 -95 200 0 200 0 0 -325 0 -325 120 0 120 0 0 325 0
               325 195 0 195 0 0 95 0 95 -515 0 -515 0 0 -95z"></path><path class="cls-1" d="M11863 1059 c-63 -24 -128 -85 -156 -147 -20 -43 -22 -63 -22 -252 0
               -173 3 -211 17 -243 28 -62 73 -111 130 -143 l53 -29 368 -3 367 -3 0 96 0 95
               -301 0 c-334 0 -351 3 -384 63 -14 27 -16 55 -13 179 l3 148 33 32 32 33 315
               3 315 3 0 94 0 95 -352 -1 c-328 0 -357 -1 -405 -20z"></path><path class="cls-1" d="M13040 660 l0 -420 120 0 120 0 2 225 3 224 145 -224 145 -225 120 0
               121 0 144 225 c80 123 148 224 153 225 4 0 7 -101 7 -225 l0 -225 115 0 115 0
               0 420 0 420 -142 0 -143 0 -71 -118 c-153 -253 -286 -467 -293 -475 -4 -4 -90
               128 -192 293 l-184 300 -142 0 -143 0 0 -420z"></path><path class="cls-1" d="M14678 1063 c-60 -20 -120 -71 -156 -131 l-27 -47 0 -225 0 -225 27
               -47 c37 -62 97 -111 159 -131 74 -24 672 -25 742 -1 62 21 135 87 163 149 23
               47 24 61 24 255 0 194 -1 208 -24 255 -30 65 -104 131 -169 150 -75 22 -671
               21 -739 -2z m643 -196 c50 -33 61 -78 57 -229 -3 -110 -6 -130 -24 -155 -38
               -50 -51 -53 -304 -53 -215 0 -238 2 -267 20 -17 10 -37 28 -43 39 -5 11 -11
               86 -13 168 -2 163 2 181 56 213 29 18 52 20 268 20 229 0 237 -1 270 -23z"></path><path class="cls-1" d="M15700 985 l0 -95 200 0 200 0 0 -325 0 -325 120 0 120 0 0 325 0
               325 198 2 197 3 3 93 3 92 -521 0 -520 0 0 -95z"></path><path class="cls-1" d="M17019 1065 c-61 -20 -136 -87 -165 -150 -23 -47 -24 -61 -24 -255 0
               -194 1 -208 24 -255 13 -29 44 -69 70 -92 82 -72 98 -74 483 -71 l338 3 51 27
               c29 15 68 46 87 69 59 68 67 108 67 319 0 211 -8 251 -67 319 -19 23 -58 54
               -87 69 l-51 27 -340 2 c-272 2 -349 -1 -386 -12z m631 -190 c52 -27 60 -58 60
               -222 0 -227 5 -223 -322 -223 -251 0 -265 3 -302 53 -19 26 -21 42 -21 177 0
               135 2 151 21 177 37 50 51 53 302 53 189 0 239 -3 262 -15z"></path><path class="cls-1" d="M18140 660 l0 -420 115 0 115 0 0 325 0 325 265 0 266 0 24 -25 c17
               -16 25 -35 25 -59 0 -91 -15 -96 -310 -96 -132 0 -240 -3 -240 -8 0 -4 103
               -110 228 -235 l228 -228 152 3 152 3 -159 145 c-88 80 -160 148 -160 151 -1 4
               29 9 67 11 37 2 84 12 106 23 136 66 192 237 119 366 -34 61 -95 113 -151 129
               -23 6 -193 10 -439 10 l-403 0 0 -420z"></path></g></svg>