<svg xmlns="http://www.w3.org/2000/svg" data-name="Layer 1" height="269.9999972752166" preserveAspectRatio="xMidYMid meet" version="1.0" width="1714.2858563637146" style=""><rect id="backgroundrect" width="100%" height="100%" x="0" y="0" fill="none" stroke="none" style="" class=""/><defs class="ng-tns-c0-0"><style class="ng-tns-c0-0">.cls-1{fill: #fff;}</style></defs><title class="ng-tns-c0-0">Logo TC MOTOR.HYUNDAI-final</title><g class="currentLayer" style=""><title>Layer 1</title><g class="ng-tns-c0-0" fill="#000000" stroke="none" transform="rotate(-0.5061399936676025 844.8142089843714,129.01043701171835) translate(0,135) scale(0.02500000037252903,-0.02500000037252903) " id="svg_1">
     <defs transform="translate(799.9999389648438,-799.9999389648438) translate(0,114.28570556640625) translate(-1.561303734779358,4.484929084777832) translate(-2.510723114013672,6.605325222015381) translate(-1.7405823469161987,7.536725997924805) translate(-0.02120569907128811,4.801050186157227) translate(-6171.42822265625,-1485.714111328125) translate(0,114.28570556640625) translate(0.02096589282155037,-4.746699810028076) translate(0.03400023654103279,-7.697195529937744) translate(0.028868334367871284,-6.536067485809326) translate(0.03205934911966324,-7.258318901062012) translate(0.005963174160569906,-1.3501241207122803) translate(0.019620152190327644,-4.442857265472412) translate(-0.4945061504840851,-6.493640899658203) translate(-3.854580879211426,9.91934585571289) translate(-3.629786252975464,10.099041938781738) translate(-3.7753679752349854,11.561111450195312) translate(-1.4022823572158813,4.865640163421631) translate(15771.4267578125,-2628.571044921875) translate(-0.24135304987430573,1.0696059465408325) translate(0.11599520593881607,0.9202931523323059) translate(-0.22846950590610504,0.09790991991758347) translate(-1.9061241149902344,7.648171901702881) translate(-0.39961498975753784,-0.3208134174346924) translate(-0.20781342685222626,-0.0009153018472716212) translate(37,5.934291839599609) scale(1.041374921798706,1) translate(-37,-5.934291839599609) translate(35.529964447021484,5.934291839599609) scale(1.18789803981781,1) translate(-35.529964447021484,-5.934291839599609) translate(29.909927368164062,5.934291839599609) scale(1.1299223899841309,1.7140026092529297) translate(-29.909927368164062,-5.934291839599609) translate(26.470746994018555,3.4620797634124756) scale(1.1310126781463623,1.2038264274597168) translate(-26.470746994018555,-3.4620797634124756) translate(23.404489517211914,2.8762009143829346) scale(1.1158367395401,1.1957709789276123) translate(-23.404489517211914,-2.8762009143829346) translate(20.974903106689453,2.4051644802093506) scale(1.0957673788070679,1.2026581764221191) translate(-20.974903106689453,-2.4051644802093506) translate(19.14171600341797,1.9999431371688843) scale(1.075574517250061,1.2597533464431763) translate(-19.14171600341797,-1.9999431371688843) translate(17.79667091369629,1310.1060791015625) scale(1,0.9903810024261475) translate(-17.79667091369629,-1310.1060791015625) translate(17.69673728942871,14.311518669128418) scale(0.9981836676597595,1.018742322921753) translate(-17.69673728942871,-14.311518669128418) translate(17.536422729492188,13.96319580078125) scale(1.043668508529663,1.0858947038650513) translate(-17.536422729492188,-13.96319580078125) translate(15.922591209411621,14.726179122924805) scale(1.0005407333374023,1.0096338987350464) translate(-15.922591209411621,-14.726179122924805) translate(15.808585166931152,1323.1278076171875) scale(1.0050235986709595) translate(-15.808585166931152,-1323.1278076171875) translate(15.782840728759766,8.217214584350586) scale(1.0058183670043945,1.0098516941070557) translate(-15.782840728759766,-8.217214584350586) translate(7215.1328125,-617.9573364257812) scale(1.0263229608535767,1.0569276809692383) translate(-7215.1328125,617.9573364257812) translate(7029.45703125,-583.576171875) scale(1.0609509944915771,1.145276665687561) translate(-7029.45703125,583.576171875) translate(6624.03564453125,-507.27459716796875) scale(1.0501912832260132,1.1221100091934204) translate(-6624.03564453125,507.27459716796875) translate(6306.0078125,-450.3004455566406) scale(1.0469483137130737,1.1156691312789917) translate(-6306.0078125,450.3004455566406) translate(6021.75732421875,-402.0549011230469) scale(0.9707039594650269,1.0142340660095215) translate(-6021.75732421875,402.0549011230469) translate(25331.49609375,-397.4190673828125) scale(1.0206564664840698,1) translate(-25331.49609375,397.4190673828125) translate(24818.8359375,-398.10784912109375) scale(1.0061501264572144,1) translate(-24818.8359375,398.10784912109375) translate(24667.130859375,-398.3171691894531) scale(1.0328609943389893,1) translate(-24667.130859375,398.3171691894531) translate(23882.337890625,-399.4424743652344) scale(1.0286494493484497,1) translate(-23882.337890625,399.4424743652344) translate(23217.197265625,-400.455810546875) scale(1.0328000783920288,1) translate(-23217.197265625,400.455810546875) translate(22479.865234375,-401.649169921875) scale(1.01958429813385,1) translate(-22479.865234375,401.649169921875) translate(809.9474487304688,-615.005615234375) scale(1.0194282531738281,1) translate(-809.9474487304688,615.005615234375) translate(794.5043334960938,-614.26123046875) scale(1.0299475193023682,1.0457971096038818) translate(-794.5043334960938,614.26123046875) translate(770.8359985351562,-586.2444458007812) scale(1.025499701499939,1.063651204109192) translate(-770.8359985351562,586.2444458007812) translate(750.8713989257812,-550.24169921875) scale(1.0168812274932861,1.0371729135513306) translate(-750.8713989257812,550.24169921875) ">
        <style type="text/css">
            .cls-1 {
                fill: #fff;
            }
        </style>
  </defs>
    <path class="cls-1" d="M6685.99959573342,5075.176132141072 c-1428.3307756205695,-238.1309176924734 -2674.117035074383,-1399.0191414432811 -3231.3581896886853,-3013.8444270453674 c-208.16479913752684,-602.7688854090735 -291.4307187925375,-1116.2386766834693 -291.4307187925375,-1823.189838583 c0,-706.9511618995305 83.26591965501078,-1220.420953173926 291.4307187925375,-1823.189838583 c573.2538314710355,-1652.0332414915347 1799.8248786967708,-2775.713509352893 3298.6114324869645,-3013.8444270453674 c691.7476402108584,-104.1822764904571 1601.2676856732826,66.97432060100816 2200.141800115092,416.7291059618284 c1127.2924507139917,654.8600236543018 1943.9389704073667,1860.3977944724486 2235.369689199903,3281.7417094494 c89.67099039770387,446.4954706733877 102.48113188309014,580.444111875404 102.48113188309014,1138.5634502171392 c0,558.1193383417346 -12.810141485386268,692.0679795437507 -102.48113188309014,1138.5634502171392 c-310.64593102061707,1525.5261914674074 -1255.3938655678546,2827.804647598122 -2459.547165194163,3393.3655771177446 c-608.4817205558478,282.7804647598122 -1425.128240249222,401.8459236060488 -2043.2175669191095,305.1052382934815 zm1742.179242012532,-967.4068531256734 c473.9752349592919,-178.59818826935503 877.4946917489596,-424.17069713971813 925.5327223191576,-558.1193383417346 c86.4684550263573,-245.57250887036312 -531.62087164353,-1138.5634502171392 -1265.0014716818944,-1830.6314297608892 c-637.3045388979668,-595.3272942311835 -1002.3935712314754,-833.4582119236568 -1290.6217546526666,-840.8998031015465 c-227.38001136560618,-7.441591177889795 -240.1901528509925,0 -329.86114324869635,238.1309176924734 c-115.29127336847641,297.66364711559174 -121.69634411116954,684.6263883658611 -32.02535371346568,1302.2784561307137 c147.3166270819421,997.1732178372326 307.44339564927037,1525.5261914674074 531.62087164353,1778.5402915156606 c115.29127336847641,126.50705002412649 176.1394454240612,133.94864120201632 595.6715790704613,96.74068531256732 c256.2028297077254,-22.32477353366938 643.70960964066,-104.1822764904571 864.6845502635728,-186.03977944724483 zm-2533.205478735134,-215.806144158804 c0,-29.766364711559174 -67.25324279827791,-253.01410004825297 -147.3166270819421,-498.5866089186163 c-377.899173818895,-1123.680267861359 -752.595812266443,-2611.998503439318 -1101.672167743219,-4353.33083906553 c-128.1014148538627,-632.5352501206324 -249.7977589650322,-1190.654588462367 -272.21550656445834,-1250.1873178854858 c-35.22788908481224,-89.29909413467752 -64.05070742693135,-74.41591177889794 -185.7470515381008,89.29909413467752 c-208.16479913752684,290.222055937702 -486.78537644467815,974.8484443035626 -589.2665083277684,1451.1102796885095 c-124.89887948251608,587.8857030532938 -124.89887948251608,1294.836864952824 0,1852.956203294559 c150.51916245328863,677.1847971879713 467.5701642165986,1317.1616384864938 903.1149747197321,1830.6314297608892 c528.4183362721836,617.6520677648529 1393.1028865357566,1160.888223750808 1393.1028865357566,878.1077589909959 zm4470.739378399806,-1443.66868851062 c220.9749406229131,-379.52115007237956 358.6839615908155,-721.83434425531 483.5828410733315,-1220.420953173926 c80.06338428366419,-319.98842064926123 89.67099039770387,-431.612288317608 89.67099039770387,-989.7316266593429 c0,-595.3272942311835 -6.405070742693136,-669.7432060100815 -112.08873799712984,-1071.5891296161305 c-204.96226376618029,-788.8086648563182 -595.6715790704613,-1465.9934620442893 -1152.9127336847641,-2001.7880268523547 c-432.3422751317864,-409.2875147839387 -1012.0011773455154,-759.0423001447591 -1088.8620262578333,-647.418432476412 c-25.620282970772536,37.20795588944897 22.417747599425972,245.57250887036312 156.92423319598183,654.8600236543018 c336.2662139913896,1019.4979913709017 602.0766498131545,2061.320756275473 986.380894374743,3869.6274125026935 c201.75972839483364,945.0820795920033 387.5067799329346,1726.449153270432 409.92452753236057,1726.449153270432 c22.417747599425972,0 124.89887948251608,-141.3902323799061 227.38001136560618,-319.98842064926123 zm-2347.4584271970334,-3103.143521180044 c86.4684550263573,-223.24773533669384 92.8735257690504,-282.7804647598122 76.86084891231759,-669.7432060100815 c-19.215212228079412,-498.5866089186163 -182.54451616675436,-1458.5518708663992 -323.45607250600335,-1882.722568006118 c-163.3293039386749,-491.1450177407263 -275.41804193580475,-610.210476586963 -611.6842559271943,-617.6520677648529 c-694.950175582205,-14.883182355779585 -1879.8882629804355,424.17069713971813 -2030.4074254337233,751.6007089668692 c-60.848172055584776,133.94864120201632 -32.02535371346568,208.3645529809142 243.39268822233907,639.9768412985225 c640.5070742693135,1012.0564001930119 1908.711081322554,2113.411894520702 2360.2685686824193,2053.879165097583 c166.53183931002155,-22.32477353366938 198.55719302348714,-52.09113824522854 285.02564804984445,-275.33887358192237 z" id="svg_2"/><path class="cls-1" d="M12812.4497611194,238.14186651270757 l0,-3497.5478536082032 l352.2788908481224,0 l352.2788908481224,0 l0,1413.902323799061 l0,1413.902323799061 l640.5070742693135,0 l640.5070742693135,0 l0,-1413.902323799061 l0,-1413.902323799061 l368.29156770485514,0 l368.29156770485514,0 l0,3497.5478536082032 l0,3497.5478536082032 l-368.29156770485514,0 l-368.29156770485514,0 l0,-1339.486412020163 l0,-1339.486412020163 l-640.5070742693135,0 l-640.5070742693135,0 l0,1339.486412020163 l0,1339.486412020163 l-352.2788908481224,0 l-352.2788908481224,0 l0,-3497.5478536082032 z" id="svg_3"/><path class="cls-1" d="M16415.302053884287,1428.7964549750754 l624.4943974125808,-2306.893265145836 l0,-1190.654588462367 l0,-1190.654588462367 l352.2788908481224,0 l352.2788908481224,0 l0,1198.0961796402569 l0,1198.0961796402569 l608.4817205558478,2262.2437180784977 c336.2662139913896,1242.7457267075958 608.4817205558478,2277.1269004342785 608.4817205558478,2299.4516739679466 c0,22.32477353366938 -188.9495869094475,29.766364711559174 -422.73466901774685,22.32477353366938 l-419.5321336464004,-22.32477353366938 l-355.4814262194689,-1317.1616384864938 c-195.3546576521406,-729.2759354331996 -365.0890323335087,-1324.6032296643834 -374.6966384475482,-1324.6032296643834 c-12.810141485386268,0 -182.54451616675436,602.7688854090735 -381.10170919024154,1339.486412020163 l-358.6839615908155,1339.486412020163 l-429.1397397604401,0 l-425.93720438909344,0 l621.2918620412341,-2306.893265145836 z" id="svg_4"/><path class="cls-1" d="M19249.545857526,238.14186651270757 l0,-3504.9894447860925 l1178.5330166555368,22.32477353366938 c1313.039502252093,22.32477353366938 1287.41921928132,14.883182355779585 1447.545987848648,565.5609295196244 l80.06338428366419,267.89728240403264 l9.607606114039699,3073.3771564684853 l9.607606114039699,3073.3771564684853 l-355.4814262194689,0 l-352.2788908481224,0 l0,-2589.673729905648 c0,-1972.0216621407956 -9.607606114039699,-2619.4400946172073 -41.63295982750539,-2723.622371107665 c-35.22788908481224,-111.62386766834692 -105.68366725443671,-126.50705002412649 -630.899468155274,-126.50705002412649 l-592.4690436991149,0 l-9.607606114039699,2716.180779929774 l-6.405070742693136,2723.622371107665 l-368.29156770485514,0 l-368.29156770485514,0 l0,-3497.5478536082032 z" id="svg_5"/><path class="cls-1" d="M22644.23335115336,238.14186651270757 l0,-3497.5478536082032 l352.2788908481224,0 l352.2788908481224,0 l0,2716.180779929774 l0,2716.180779929774 l602.0766498131545,0 c425.93720438909344,0 614.8867912985407,-29.766364711559174 640.5070742693135,-89.29909413467752 c28.822818342119103,-66.97432060100816 38.430424456158825,-773.9254825005386 38.430424456158825,-2716.180779929774 l0,-2626.8816857950965 l368.29156770485514,0 l368.29156770485514,0 l0,2924.5453329106895 c-3.2025353713465683,3058.4939741127046 -12.810141485386268,3281.7417094494 -150.51916245328863,3638.9380859881094 c-32.02535371346568,81.85750295678773 -115.29127336847641,215.806144158804 -185.7470515381008,290.222055937702 c-115.29127336847641,126.50705002412649 -230.58254673695282,141.3902323799061 -1255.3938655678546,141.3902323799061 l-1130.4949860853378,0 l0,-3497.5478536082032 z" id="svg_6"/><path class="cls-1" d="M26006.895491067244,238.14186651270757 l0,-3504.9894447860925 l1178.5330166555368,22.32477353366938 c1162.5203397988037,22.32477353366938 1175.33048128419,22.32477353366938 1293.8242900240134,193.48137062513464 c67.25324279827791,96.74068531256732 144.11409171059552,297.66364711559174 182.54451616675436,491.1450177407263 c64.05070742693135,297.66364711559174 67.25324279827791,439.05387949549794 67.25324279827791,2798.0382828865622 c0,2358.984403391065 -3.2025353713465683,2500.3746357709715 -67.25324279827791,2798.0382828865622 c-38.430424456158825,193.48137062513464 -115.29127336847641,394.4043324281591 -182.54451616675436,491.1450177407263 c-118.49380873982298,171.15659709146527 -131.3039502252092,171.15659709146527 -1293.8242900240134,193.48137062513464 l-1178.5330166555368,22.32477353366938 l0,-3504.9894447860925 zm1972.761788749486,1852.956203294559 c67.25324279827791,-126.50705002412649 67.25324279827791,-3579.4053565649906 0,-3705.912406589118 c-28.822818342119103,-59.53272942311835 -243.39268822233907,-89.29909413467752 -640.5070742693135,-104.1822764904571 l-595.6715790704613,-14.883182355779585 l0,1972.0216621407956 l0,1972.0216621407956 l595.6715790704613,-14.883182355779585 c397.1143860469743,-14.883182355779585 611.6842559271943,-44.64954706733876 640.5070742693135,-104.1822764904571 z" id="svg_7"/><path class="cls-1" d="M29741.051734057346,3661.2738083420136 c-118.49380873982298,-89.29909413467752 -272.21550656445834,-416.7291059618284 -326.6586078773498,-721.83434425531 c-35.22788908481224,-193.48137062513464 -44.83549519885194,-855.7829854573264 -44.83549519885194,-3222.20898002628 l0,-2976.636471155917 l352.2788908481224,0 l352.2788908481224,0 l0,1079.03072079402 l0,1079.03072079402 l640.5070742693135,0 l640.5070742693135,0 l0,-1079.03072079402 l0,-1079.03072079402 l368.29156770485514,0 l368.29156770485514,0 l0,3497.5478536082032 l0,3497.5478536082032 l-1127.2924507139917,-7.441591177889795 c-621.2918620412341,0 -1172.1279459128434,-37.20795588944897 -1223.3685118543885,-66.97432060100816 zm1614.0778271586692,-2344.101221035285 l0,-892.9909413467753 l-630.899468155274,14.883182355779585 l-634.1020035266204,14.883182355779585 l-9.607606114039699,654.8600236543018 c-9.607606114039699,773.9254825005386 6.405070742693136,974.8484443035626 89.67099039770387,1049.2643560824613 c32.02535371346568,29.766364711559174 313.84846639196365,52.09113824522854 621.2918620412341,52.09113824522854 l563.6462253569958,0 l0,-892.9909413467753 z" id="svg_8"/><path class="cls-1" d="M32764.245124608507,238.14186651270757 l0,-3497.5478536082032 l368.29156770485514,0 l368.29156770485514,0 l0,3497.5478536082032 l0,3497.5478536082032 l-368.29156770485514,0 l-368.29156770485514,0 l0,-3497.5478536082032 z" id="svg_9"/><path class="cls-1" d="M35262.22271425883,238.14186651270757 l0,-3497.5478536082032 l96.07606114039697,0 l96.07606114039697,0 l0,3497.5478536082032 l0,3497.5478536082032 l-96.07606114039697,0 l-96.07606114039697,0 l0,-3497.5478536082032 z" id="svg_10"/><path class="cls-1" d="M36863.4903999321,2656.658999326891 l0,-706.9511618995305 l640.5070742693135,0 l640.5070742693135,0 l0,-2418.517132814183 l0,-2418.517132814183 l384.3042445615879,0 l384.3042445615879,0 l0,2418.517132814183 l0,2418.517132814183 l624.4943974125808,0 l624.4943974125808,0 l0,706.9511618995305 l0,706.9511618995305 l-1649.3057162434823,0 l-1649.3057162434823,0 l0,-706.9511618995305 z" id="svg_11"/><path class="cls-1" d="M41036.393988796706,3207.3367464907355 c-201.75972839483364,-178.59818826935503 -409.92452753236057,-632.5352501206324 -499.5955179300644,-1093.9139031497996 c-64.05070742693135,-319.98842064926123 -70.45577816962448,-468.82024420705693 -70.45577816962448,-1875.2809768282277 c0,-1287.3952737749344 9.607606114039699,-1570.1757385347466 54.44310131289163,-1808.3066562272209 c89.67099039770387,-461.3786530291672 233.78508210829932,-826.0166207457673 416.3295982750537,-1064.1475384382406 l169.73437468136802,-215.806144158804 l1178.5330166555368,-22.32477353366938 l1175.33048128419,-22.32477353366938 l0,714.3927530774201 l0,706.9511618995305 l-963.9631467753164,0 c-1069.6468140297532,0 -1124.089915342645,22.32477353366938 -1229.7735825970815,468.82024420705693 c-44.83549519885194,200.9229618030244 -51.24056594154508,409.2875147839387 -41.63295982750539,1332.0448208422729 l9.607606114039699,1101.3554943276895 l105.68366725443671,238.1309176924734 l102.48113188309014,245.57250887036312 l1008.7986419741687,22.32477353366938 l1008.7986419741687,22.32477353366938 l0,699.5095707216406 l0,706.9511618995305 l-1127.2924507139917,-7.441591177889795 c-1050.4316018016737,0 -1143.305127570724,-7.441591177889795 -1297.0268253953598,-148.83182355779587 z" id="svg_12"/><path class="cls-1" d="M44805.778120871626,238.14186651270757 l0,-3125.4682947137126 l384.3042445615879,0 l384.3042445615879,0 l6.405070742693136,1674.358015025204 l9.607606114039699,1666.9164238473136 l464.3676288452522,-1666.9164238473136 l464.3676288452522,-1674.358015025204 l384.3042445615879,0 l387.5067799329346,0 l461.16509347390564,1674.358015025204 c256.2028297077254,915.3157148804446 473.9752349592919,1666.9164238473136 489.9879118160248,1674.358015025204 c12.810141485386268,0 22.417747599425972,-751.6007089668692 22.417747599425972,-1674.358015025204 l0,-1674.358015025204 l368.29156770485514,0 l368.29156770485514,0 l0,3125.4682947137126 l0,3125.4682947137126 l-454.76002273121236,0 l-457.962558102559,0 l-227.38001136560618,-878.1077589909959 c-489.9879118160248,-1882.722568006118 -915.925116205118,-3475.2230800745347 -938.3428638045443,-3534.7558094976516 c-12.810141485386268,-29.766364711559174 -288.22818342119103,952.5236707698936 -614.8867912985407,2180.3862151217095 l-589.2665083277684,2232.4773533669386 l-454.76002273121236,0 l-457.962558102559,0 l0,-3125.4682947137126 z" id="svg_13"/><path class="cls-1" d="M50051.53105913729,3237.1031112022956 c-192.15212228079395,-148.83182355779587 -384.3042445615879,-528.3529736301755 -499.5955179300644,-974.8484443035626 l-86.4684550263573,-349.7547853608203 l0,-1674.358015025204 l0,-1674.358015025204 l86.4684550263573,-349.7547853608203 c118.49380873982298,-461.3786530291672 310.64593102061707,-826.0166207457673 509.20312404410413,-974.8484443035626 c236.98761747964596,-178.59818826935503 2152.103769544893,-186.03977944724483 2376.281245539153,-7.441591177889795 c198.55719302348714,156.27341473568572 432.3422751317864,647.418432476412 522.0132655294905,1108.7970855055796 c73.65831354097105,349.7547853608203 76.86084891231759,453.93706185127746 76.86084891231759,1897.6057503618968 c0,1443.66868851062 -3.2025353713465683,1547.8509650010772 -76.86084891231759,1897.6057503618968 c-96.07606114039697,483.7034265628367 -333.0636786200431,974.8484443035626 -541.2284777575699,1116.2386766834693 c-240.1901528509925,163.71500591357545 -2148.9012341735474,156.27341473568572 -2366.673639425114,-14.883182355779585 zm2059.230243775842,-1458.5518708663992 c160.12676856732838,-245.57250887036312 195.3546576521406,-580.444111875404 182.54451616675436,-1704.1243797367626 c-9.607606114039699,-818.5750295678774 -19.215212228079412,-967.4068531256734 -76.86084891231759,-1153.446632572918 c-121.69634411116954,-372.07955889448965 -163.3293039386749,-394.4043324281591 -973.5707528893563,-394.4043324281591 c-688.5451048395121,0 -762.2034183804831,14.883182355779585 -855.0769441495332,148.83182355779587 c-54.44310131289163,74.41591177889794 -118.49380873982298,208.3645529809142 -137.70902096790238,290.222055937702 c-16.01267685673284,81.85750295678773 -35.22788908481224,639.9768412985225 -41.63295982750539,1250.1873178854858 c-6.405070742693136,1212.9793619960365 6.405070742693136,1346.9280031980522 179.34198079540775,1585.058920890526 c92.8735257690504,133.94864120201632 166.53183931002155,148.83182355779587 858.2794795208802,148.83182355779587 c733.3806000383634,0 759.0008830091361,-7.441591177889795 864.6845502635728,-171.15659709146527 z" id="svg_14"/><path class="cls-1" d="M53324.52220865345,2656.658999326891 l0,-706.9511618995305 l640.5070742693135,0 l640.5070742693135,0 l0,-2418.517132814183 l0,-2418.517132814183 l384.3042445615879,0 l384.3042445615879,0 l0,2418.517132814183 l0,2418.517132814183 l634.1020035266204,14.883182355779585 l630.899468155274,22.32477353366938 l9.607606114039699,692.0679795437507 l9.607606114039699,684.6263883658611 l-1668.5209284715606,0 l-1665.3183931002147,0 l0,-706.9511618995305 z" id="svg_15"/><path class="cls-1" d="M57548.66636345959,3251.9862935580722 c-195.3546576521406,-148.83182355779587 -435.544810503133,-647.418432476412 -528.4183362721836,-1116.2386766834693 c-73.65831354097105,-349.7547853608203 -76.86084891231759,-453.93706185127746 -76.86084891231759,-1897.6057503618968 c0,-1443.66868851062 3.2025353713465683,-1547.8509650010772 76.86084891231759,-1897.6057503618968 c41.63295982750539,-215.806144158804 140.91155633924896,-513.4697912743958 224.17747599425968,-684.6263883658611 c262.6079004504184,-535.7945648080653 313.84846639196365,-550.6777471638447 1546.8245843603922,-528.3529736301755 l1082.4569555151397,22.32477353366938 l163.3293039386749,200.9229618030244 c92.8735257690504,111.62386766834692 217.7724052515665,342.31319418293054 278.6205773071513,513.4697912743958 c188.9495869094475,506.02820009650594 214.56986988022004,803.6918472120976 214.56986988022004,2373.867585746844 c0,1570.1757385347466 -25.620282970772536,1867.8393856503392 -214.56986988022004,2373.867585746844 c-60.848172055584776,171.15659709146527 -185.7470515381008,401.8459236060488 -278.6205773071513,513.4697912743958 l-163.3293039386749,200.9229618030244 l-1088.8620262578333,14.883182355779585 c-871.089621006266,14.883182355779585 -1117.6848445999515,-7.441591177889795 -1236.1786533397749,-89.29909413467752 zm2020.7998193196843,-1413.902323799061 c166.53183931002155,-200.9229618030244 192.15212228079395,-431.612288317608 192.15212228079395,-1652.0332414915347 c0,-1689.2411973809833 16.01267685673284,-1659.474832669424 -1031.2163895735941,-1659.474832669424 c-803.8363782079887,0 -848.6718734068401,22.32477353366938 -967.165682146663,394.4043324281591 c-60.848172055584776,193.48137062513464 -67.25324279827791,312.54682947137144 -67.25324279827791,1317.1616384864938 c0,1004.6148090151219 6.405070742693136,1123.680267861359 67.25324279827791,1317.1616384864938 c118.49380873982298,372.07955889448965 163.3293039386749,394.4043324281591 967.165682146663,394.4043324281591 c605.2791851845011,0 765.4059537518297,-22.32477353366938 839.0642672928008,-111.62386766834692 z" id="svg_16"/><path class="cls-1" d="M61138.70851473908,238.14186651270757 l0,-3125.4682947137126 l368.29156770485514,0 l368.29156770485514,0 l0,2418.517132814183 l0,2418.517132814183 l848.6718734068401,0 l851.8744087781869,0 l76.86084891231759,-186.03977944724483 c54.44310131289163,-119.0654588462367 80.06338428366419,-260.45569122614285 80.06338428366419,-439.05387949549794 c0,-677.1847971879713 -48.03803057019849,-714.3927530774201 -992.7859651174363,-714.3927530774201 c-422.73466901774685,0 -768.6084891231758,-22.32477353366938 -768.6084891231758,-59.53272942311835 c0,-29.766364711559174 329.86114324869635,-818.5750295678774 730.1780646670175,-1748.7739268041016 l730.1780646670175,-1696.6827885588723 l486.78537644467815,22.32477353366938 l486.78537644467815,22.32477353366938 l-509.20312404410413,1079.03072079402 c-281.8231126784979,595.3272942311835 -512.4056594154508,1101.3554943276895 -512.4056594154508,1123.680267861359 c-3.2025353713465683,29.766364711559174 92.8735257690504,66.97432060100816 214.56986988022004,81.85750295678773 c118.49380873982298,14.883182355779585 269.01297119311164,89.29909413467752 339.46874936273605,171.15659709146527 c435.544810503133,491.1450177407263 614.8867912985407,1763.6571091598814 381.10170919024154,2723.622371107665 c-108.88620262578326,453.93706185127746 -304.2408602779239,840.8998031015465 -483.5828410733315,959.9652619477835 c-73.65831354097105,44.64954706733876 -618.0893266698874,74.41591177889794 -1405.9130280211436,74.41591177889794 l-1290.6217546526666,0 l0,-3125.4682947137126 z" id="svg_17"/></g></g></svg>