<?xml version="1.0" encoding="UTF-8" standalone="no" ?>
<!DOCTYPE svg PUBLIC "-//W3C//DTD SVG 1.1//EN" "http://www.w3.org/Graphics/SVG/1.1/DTD/svg11.dtd">
<svg xmlns="http://www.w3.org/2000/svg" xmlns:xlink="http://www.w3.org/1999/xlink" version="1.1" width="1080" height="1080" viewBox="0 0 1080 1080" xml:space="preserve">
<desc>Created with Fabric.js 5.2.4</desc>
<defs>
</defs>
<rect x="0" y="0" width="100%" height="100%" fill="transparent"></rect>
<g transform="matrix(1 0 0 1 540 540)" id="0adc8512-d3b1-4727-800a-5c09be12a214"  >
<rect style="stroke: none; stroke-width: 1; stroke-dasharray: none; stroke-linecap: butt; stroke-dashoffset: 0; stroke-linejoin: miter; stroke-miterlimit: 4; fill: rgb(255,255,255); fill-rule: nonzero; opacity: 1; visibility: hidden;" vector-effect="non-scaling-stroke"  x="-540" y="-540" rx="0" ry="0" width="1080" height="1080" />
</g>
<g transform="matrix(1 0 0 1 540 540)" id="4a0b00bb-7fca-437b-b2f7-210fd0284237"  >
</g>
<g transform="matrix(4.02 0 0 4.02 538.67 501.48)"  >
<g style="" vector-effect="non-scaling-stroke"   >
		<g transform="matrix(0.13 0 0 -0.13 -72.88 -46.99)"  >
<path style="stroke: none; stroke-width: 1; stroke-dasharray: none; stroke-linecap: butt; stroke-dashoffset: 0; stroke-linejoin: miter; stroke-miterlimit: 4; fill: rgb(255,255,255); fill-rule: nonzero; opacity: 1;" vector-effect="non-scaling-stroke"  transform=" translate(-578.37, -1466.72)" d="M 553 1493 C 546 1491 540 1475 540 1459 C 540 1433 542 1431 564 1440 C 577 1445 590 1447 593 1444 C 595 1442 603 1446 610 1455 C 633 1483 593 1510 553 1493 z" stroke-linecap="round" />
</g>
		<g transform="matrix(0.13 0 0 -0.13 19.3 -25.43)"  >
<path style="stroke: none; stroke-width: 1; stroke-dasharray: none; stroke-linecap: butt; stroke-dashoffset: 0; stroke-linejoin: miter; stroke-miterlimit: 4; fill: rgb(255,255,255); fill-rule: nonzero; opacity: 1;" vector-effect="non-scaling-stroke"  transform=" translate(-1269.76, -1305)" d="M 1087 1474 C 1083 1470 1080 1454 1080 1438 C 1080 1415 1076 1410 1054 1410 C 1021 1410 1024 1377 1058 1372 C 1079 1369 1080 1364 1080 1279 C 1080 1192 1081 1187 1109 1159 C 1135 1133 1145 1130 1199 1130 C 1252 1130 1260 1132 1260 1149 C 1260 1162 1250 1169 1224 1173 C 1166 1183 1160 1193 1160 1286 L 1160 1370 L 1245 1370 L 1330 1370 L 1330 1275 C 1330 1194 1333 1177 1350 1160 C 1375 1135 1404 1128 1461 1132 C 1493 1134 1506 1140 1508 1153 C 1511 1166 1505 1170 1482 1170 C 1466 1170 1442 1178 1429 1189 C 1409 1205 1406 1216 1406 1286 L 1405 1365 L 1455 1370 C 1491 1374 1506 1380 1508 1392 C 1511 1406 1502 1409 1458 1412 C 1406 1415 1405 1416 1402 1448 C 1399 1477 1396 1480 1364 1480 C 1332 1480 1330 1478 1330 1445 L 1330 1410 L 1246 1410 L 1161 1410 L 1158 1443 C 1155 1471 1151 1475 1125 1478 C 1108 1480 1091 1478 1087 1474 z" stroke-linecap="round" />
</g>
		<g transform="matrix(0.13 0 0 -0.13 118.06 -25.43)"  >
<path style="stroke: none; stroke-width: 1; stroke-dasharray: none; stroke-linecap: butt; stroke-dashoffset: 0; stroke-linejoin: miter; stroke-miterlimit: 4; fill: rgb(255,255,255); fill-rule: nonzero; opacity: 1;" vector-effect="non-scaling-stroke"  transform=" translate(-2010.48, -1305.05)" d="M 1924 1465 C 1921 1457 1920 1390 1922 1315 C 1926 1149 1932 1138 2035 1132 C 2095 1128 2100 1129 2100 1148 C 2100 1163 2091 1169 2060 1174 C 2036 1178 2017 1188 2010 1199 C 2005 1210 2000 1277 2000 1349 L 2000 1480 L 1965 1480 C 1943 1480 1927 1474 1924 1465 z" stroke-linecap="round" />
</g>
		<g transform="matrix(0.13 0 0 -0.13 -105.39 -20.09)"  >
<path style="stroke: none; stroke-width: 1; stroke-dasharray: none; stroke-linecap: butt; stroke-dashoffset: 0; stroke-linejoin: miter; stroke-miterlimit: 4; fill: rgb(255,255,255); fill-rule: nonzero; opacity: 1;" vector-effect="non-scaling-stroke"  transform=" translate(-334.58, -1264.94)" d="M 150 1404 C 150 1400 180 1339 218 1267 C 288 1133 307 1112 354 1124 C 374 1129 393 1156 447 1262 C 484 1335 517 1398 519 1403 C 521 1408 505 1410 484 1408 C 445 1405 445 1404 395 1301 C 367 1245 340 1198 335 1198 C 330 1198 303 1244 275 1301 C 226 1404 224 1405 188 1408 C 167 1410 150 1408 150 1404 z" stroke-linecap="round" />
</g>
		<g transform="matrix(0.13 0 0 -0.13 -73 -20.76)"  >
<path style="stroke: none; stroke-width: 1; stroke-dasharray: none; stroke-linecap: butt; stroke-dashoffset: 0; stroke-linejoin: miter; stroke-miterlimit: 4; fill: rgb(255,255,255); fill-rule: nonzero; opacity: 1;" vector-effect="non-scaling-stroke"  transform=" translate(-577.5, -1270)" d="M 540 1270 L 540 1129 L 578 1132 L 615 1135 L 615 1270 L 615 1405 L 578 1408 L 540 1411 L 540 1270 z" stroke-linecap="round" />
</g>
		<g transform="matrix(0.13 0 0 -0.13 -38 -20.76)"  >
<path style="stroke: none; stroke-width: 1; stroke-dasharray: none; stroke-linecap: butt; stroke-dashoffset: 0; stroke-linejoin: miter; stroke-miterlimit: 4; fill: rgb(255,255,255); fill-rule: nonzero; opacity: 1;" vector-effect="non-scaling-stroke"  transform=" translate(-840, -1270)" d="M 723 1395 C 679 1376 670 1353 670 1265 C 670 1194 672 1186 699 1159 L 728 1130 L 864 1130 C 993 1130 1000 1131 1000 1150 C 1000 1169 993 1170 897 1170 C 783 1170 750 1182 750 1226 L 750 1250 L 861 1250 C 991 1250 1010 1257 1010 1306 C 1010 1385 969 1410 843 1410 C 791 1409 742 1404 723 1395 z M 900 1357 C 914 1350 926 1335 928 1323 C 931 1303 926 1301 853 1298 C 810 1296 766 1290 756 1285 C 739 1278 738 1280 744 1306 C 748 1322 760 1343 772 1353 C 796 1373 863 1376 900 1357 z" stroke-linecap="round" />
</g>
		<g transform="matrix(0.13 0 0 -0.13 77.11 -20.6)"  >
<path style="stroke: none; stroke-width: 1; stroke-dasharray: none; stroke-linecap: butt; stroke-dashoffset: 0; stroke-linejoin: miter; stroke-miterlimit: 4; fill: rgb(255,255,255); fill-rule: nonzero; opacity: 1;" vector-effect="non-scaling-stroke"  transform=" translate(-1703.35, -1268.81)" d="M 1595 1401 C 1555 1384 1536 1351 1532 1291 C 1530 1258 1533 1216 1540 1196 C 1558 1140 1588 1130 1735 1130 C 1851 1130 1860 1131 1860 1149 C 1860 1167 1850 1169 1749 1172 C 1653 1175 1636 1178 1624 1194 C 1616 1205 1610 1222 1610 1232 C 1610 1248 1621 1250 1730 1250 C 1844 1250 1850 1251 1865 1273 C 1885 1304 1875 1351 1843 1382 C 1821 1403 1808 1405 1717 1407 C 1661 1409 1606 1406 1595 1401 z M 1776 1347 C 1815 1313 1800 1300 1725 1300 C 1690 1300 1650 1296 1636 1290 C 1613 1282 1610 1283 1610 1303 C 1610 1349 1638 1368 1707 1369 C 1737 1370 1756 1364 1776 1347 z" stroke-linecap="round" />
</g>
		<g transform="matrix(0.13 0 0 -0.13 30.67 31.91)"  >
<path style="stroke: none; stroke-width: 1; stroke-dasharray: none; stroke-linecap: butt; stroke-dashoffset: 0; stroke-linejoin: miter; stroke-miterlimit: 4; fill: rgb(255,255,255); fill-rule: nonzero; opacity: 1;" vector-effect="non-scaling-stroke"  transform=" translate(-1355, -875)" d="M 1400 945 C 1400 922 1396 920 1356 920 C 1302 920 1280 901 1280 854 C 1280 791 1292 780 1365 780 L 1430 780 L 1430 875 C 1430 953 1427 970 1415 970 C 1406 970 1400 961 1400 945 z M 1400 850 L 1400 800 L 1365 800 C 1336 800 1328 805 1320 825 C 1303 869 1325 900 1373 900 C 1399 900 1400 898 1400 850 z" stroke-linecap="round" />
</g>
		<g transform="matrix(0.13 0 0 -0.13 47.33 21.24)"  >
<path style="stroke: none; stroke-width: 1; stroke-dasharray: none; stroke-linecap: butt; stroke-dashoffset: 0; stroke-linejoin: miter; stroke-miterlimit: 4; fill: rgb(255,255,255); fill-rule: nonzero; opacity: 1;" vector-effect="non-scaling-stroke"  transform=" translate(-1480, -955)" d="M 1460 955 C 1460 947 1469 940 1480 940 C 1491 940 1500 947 1500 955 C 1500 963 1491 970 1480 970 C 1469 970 1460 963 1460 955 z" stroke-linecap="round" />
</g>
		<g transform="matrix(0.13 0 0 -0.13 80.67 21.24)"  >
<path style="stroke: none; stroke-width: 1; stroke-dasharray: none; stroke-linecap: butt; stroke-dashoffset: 0; stroke-linejoin: miter; stroke-miterlimit: 4; fill: rgb(255,255,255); fill-rule: nonzero; opacity: 1;" vector-effect="non-scaling-stroke"  transform=" translate(-1730, -955)" d="M 1710 955 C 1710 947 1719 940 1730 940 C 1741 940 1750 947 1750 955 C 1750 963 1741 970 1730 970 C 1719 970 1710 963 1710 955 z" stroke-linecap="round" />
</g>
		<g transform="matrix(0.13 0 0 -0.13 92.7 31.91)"  >
<path style="stroke: none; stroke-width: 1; stroke-dasharray: none; stroke-linecap: butt; stroke-dashoffset: 0; stroke-linejoin: miter; stroke-miterlimit: 4; fill: rgb(255,255,255); fill-rule: nonzero; opacity: 1;" vector-effect="non-scaling-stroke"  transform=" translate(-1820.25, -875)" d="M 1790 946 C 1790 933 1784 919 1778 916 C 1768 911 1768 909 1778 904 C 1785 901 1790 879 1790 851 C 1790 797 1802 780 1842 780 C 1874 780 1880 795 1850 803 C 1834 807 1830 817 1830 854 C 1830 893 1833 900 1850 900 C 1861 900 1870 905 1870 910 C 1870 916 1861 920 1850 920 C 1835 920 1830 927 1830 945 C 1830 963 1825 970 1810 970 C 1796 970 1790 963 1790 946 z" stroke-linecap="round" />
</g>
		<g transform="matrix(0.13 0 0 -0.13 128 31.91)"  >
<path style="stroke: none; stroke-width: 1; stroke-dasharray: none; stroke-linecap: butt; stroke-dashoffset: 0; stroke-linejoin: miter; stroke-miterlimit: 4; fill: rgb(255,255,255); fill-rule: nonzero; opacity: 1;" vector-effect="non-scaling-stroke"  transform=" translate(-2085, -875)" d="M 2070 875 C 2070 797 2073 780 2085 780 C 2097 780 2100 797 2100 875 C 2100 953 2097 970 2085 970 C 2073 970 2070 953 2070 875 z" stroke-linecap="round" />
</g>
		<g transform="matrix(0.13 0 0 -0.13 47.33 35.24)"  >
<path style="stroke: none; stroke-width: 1; stroke-dasharray: none; stroke-linecap: butt; stroke-dashoffset: 0; stroke-linejoin: miter; stroke-miterlimit: 4; fill: rgb(255,255,255); fill-rule: nonzero; opacity: 1;" vector-effect="non-scaling-stroke"  transform=" translate(-1480, -850)" d="M 1460 850 C 1460 787 1462 780 1480 780 C 1498 780 1500 787 1500 850 C 1500 913 1498 920 1480 920 C 1462 920 1460 913 1460 850 z" stroke-linecap="round" />
</g>
		<g transform="matrix(0.13 0 0 -0.13 63.98 38.55)"  >
<path style="stroke: none; stroke-width: 1; stroke-dasharray: none; stroke-linecap: butt; stroke-dashoffset: 0; stroke-linejoin: miter; stroke-miterlimit: 4; fill: rgb(255,255,255); fill-rule: nonzero; opacity: 1;" vector-effect="non-scaling-stroke"  transform=" translate(-1604.88, -825.14)" d="M 1548 909 C 1527 897 1523 811 1542 792 C 1549 785 1574 780 1598 780 C 1658 780 1649 756 1587 752 C 1561 750 1540 745 1540 739 C 1540 726 1654 728 1668 742 C 1675 749 1680 786 1680 837 L 1680 920 L 1623 920 C 1591 920 1557 915 1548 909 z M 1648 848 L 1651 800 L 1618 800 C 1577 800 1560 815 1560 850 C 1560 885 1579 902 1615 898 C 1643 895 1645 892 1648 848 z" stroke-linecap="round" />
</g>
		<g transform="matrix(0.13 0 0 -0.13 80.67 35.24)"  >
<path style="stroke: none; stroke-width: 1; stroke-dasharray: none; stroke-linecap: butt; stroke-dashoffset: 0; stroke-linejoin: miter; stroke-miterlimit: 4; fill: rgb(255,255,255); fill-rule: nonzero; opacity: 1;" vector-effect="non-scaling-stroke"  transform=" translate(-1730, -850)" d="M 1710 850 C 1710 787 1712 780 1730 780 C 1748 780 1750 787 1750 850 C 1750 913 1748 920 1730 920 C 1712 920 1710 913 1710 850 z" stroke-linecap="round" />
</g>
		<g transform="matrix(0.13 0 0 -0.13 111.32 35.12)"  >
<path style="stroke: none; stroke-width: 1; stroke-dasharray: none; stroke-linecap: butt; stroke-dashoffset: 0; stroke-linejoin: miter; stroke-miterlimit: 4; fill: rgb(255,255,255); fill-rule: nonzero; opacity: 1;" vector-effect="non-scaling-stroke"  transform=" translate(-1959.93, -850.86)" d="M 1900 911 C 1900 905 1921 900 1947 898 C 2007 894 2019 870 1961 870 C 1933 870 1913 863 1900 850 C 1877 827 1876 820 1893 796 C 1903 782 1918 780 1970 782 L 2035 785 L 2038 838 C 2040 869 2036 898 2029 906 C 2016 922 1900 926 1900 911 z M 2000 820 C 2000 804 1993 800 1966 800 C 1930 800 1914 812 1925 830 C 1928 836 1947 840 1966 840 C 1993 840 2000 836 2000 820 z" stroke-linecap="round" />
</g>
</g>
</g>
</svg>